<svg width="15" height="13" viewBox="0 0 15 13" fill="none" xmlns="http://www.w3.org/2000/svg">
<path d="M13.0002 10.5V12C13.0002 12.1444 12.953 12.264 12.8588 12.3587C12.7642 12.4529 12.6446 12.5 12.5002 12.5C12.3557 12.5 12.2362 12.4529 12.1415 12.3587C12.0473 12.264 12.0002 12.1444 12.0002 12V10.5H10.5002C10.3557 10.5 10.2364 10.4529 10.1422 10.3587C10.0475 10.264 10.0002 10.1444 10.0002 10C10.0002 9.85556 10.0475 9.736 10.1422 9.64134C10.2364 9.54711 10.3557 9.5 10.5002 9.5H12.0002V8C12.0002 7.85556 12.0473 7.736 12.1415 7.64134C12.2362 7.54711 12.3557 7.5 12.5002 7.5C12.6446 7.5 12.7642 7.54711 12.8588 7.64134C12.953 7.736 13.0002 7.85556 13.0002 8V9.5H14.5002C14.6446 9.5 14.7642 9.54711 14.8588 9.64134C14.953 9.736 15.0002 9.85556 15.0002 10C15.0002 10.1444 14.953 10.264 14.8588 10.3587C14.7642 10.4529 14.6446 10.5 14.5002 10.5H13.0002ZM2.35015 10.6667C2.17237 10.6667 2.02793 10.6084 1.91682 10.492C1.80571 10.3751 1.75015 10.2333 1.75015 10.0667V6.66667H1.53348C1.3446 6.66667 1.18904 6.59156 1.06682 6.44134C0.944595 6.29156 0.905706 6.12222 0.950151 5.93334L1.61682 2.81667C1.65015 2.67222 1.72237 2.55556 1.83348 2.46667C1.9446 2.37778 2.07237 2.33334 2.21682 2.33334H10.7835C10.9279 2.33334 11.0557 2.37778 11.1668 2.46667C11.2779 2.55556 11.3502 2.67222 11.3835 2.81667L12.0502 5.93334C12.0946 6.12222 12.0557 6.29156 11.9335 6.44134C11.8113 6.59156 11.6557 6.66667 11.4668 6.66667H11.2502V8.25C11.2502 8.39445 11.203 8.514 11.1088 8.60867C11.0142 8.70289 10.8946 8.75 10.7502 8.75C10.6168 8.75 10.5002 8.70289 10.4002 8.60867C10.3002 8.514 10.2502 8.39445 10.2502 8.25V6.66667H7.41682V10.0667C7.41682 10.2333 7.3586 10.3751 7.24215 10.492C7.12526 10.6084 6.97793 10.6667 6.80015 10.6667H2.35015ZM2.75015 9.66667H6.41682V6.66667H2.75015V9.66667ZM2.21682 1.33334C2.07237 1.33334 1.95304 1.286 1.85882 1.19134C1.76415 1.09711 1.71682 0.97778 1.71682 0.833336C1.71682 0.688891 1.76415 0.569336 1.85882 0.474669C1.95304 0.380447 2.07237 0.333336 2.21682 0.333336H10.7835C10.9279 0.333336 11.0473 0.380447 11.1415 0.474669C11.2362 0.569336 11.2835 0.688891 11.2835 0.833336C11.2835 0.97778 11.2362 1.09711 11.1415 1.19134C11.0473 1.286 10.9279 1.33334 10.7835 1.33334H2.21682ZM2.01682 5.66667H10.9835L10.4668 3.33334H2.53348L2.01682 5.66667Z" fill="#FDFFFE"/>
</svg>
