<svg width="22" height="17" viewBox="0 0 22 17" fill="none" xmlns="http://www.w3.org/2000/svg">
<path d="M2.85 6.12499C2.63333 6.12499 2.454 6.05399 2.312 5.91199C2.17067 5.77065 2.1 5.59165 2.1 5.37499C2.1 5.17499 2.17067 4.99999 2.312 4.84999C2.454 4.69999 2.63333 4.62499 2.85 4.62499H5.9C6.33333 4.62499 6.71267 4.77065 7.038 5.06199C7.36267 5.35399 7.55 5.70832 7.6 6.12499H2.85ZM4.875 16.625C3.59167 16.625 2.5 16.175 1.6 15.275C0.7 14.375 0.25 13.2833 0.25 12C0.25 10.7167 0.7 9.62499 1.6 8.72499C2.5 7.82499 3.59167 7.37499 4.875 7.37499C5.375 7.37499 5.87067 7.46232 6.362 7.63699C6.854 7.81232 7.3 8.05832 7.7 8.37499H9.875C10.525 8.37499 11.0833 8.14165 11.55 7.67499C12.0167 7.20832 12.25 6.64999 12.25 5.99999V4.07499L11.2 3.02499L9.8 4.42499L9.05 3.72499L12.6 0.174988L13.3 0.874988L11.9 2.27499L12.95 3.37499H18.675C19.175 3.37499 19.6 3.55399 19.95 3.91199C20.3 4.27065 20.475 4.69999 20.475 5.19999V10.85C20.875 11.15 21.1877 11.5167 21.413 11.95C21.6377 12.3833 21.75 12.8583 21.75 13.375C21.75 14.275 21.4333 15.0417 20.8 15.675C20.1667 16.3083 19.4 16.625 18.5 16.625C17.6 16.625 16.8333 16.3083 16.2 15.675C15.5667 15.0417 15.25 14.275 15.25 13.375C15.25 13.2583 15.2543 13.15 15.263 13.05C15.271 12.95 15.2833 12.85 15.3 12.75H9.425C9.24167 13.8667 8.721 14.7917 7.863 15.525C7.00433 16.2583 6.00833 16.625 4.875 16.625ZM4.875 15.125C5.74167 15.125 6.475 14.8207 7.075 14.212C7.675 13.604 7.975 12.8667 7.975 12C7.975 11.1333 7.675 10.3957 7.075 9.78699C6.475 9.17899 5.74167 8.87499 4.875 8.87499C4.00833 8.87499 3.271 9.17899 2.663 9.78699C2.05433 10.3957 1.75 11.1333 1.75 12C1.75 12.8667 2.05433 13.604 2.663 14.212C3.271 14.8207 4.00833 15.125 4.875 15.125ZM18.5 15.125C18.9833 15.125 19.396 14.95 19.738 14.6C20.0793 14.25 20.25 13.8417 20.25 13.375C20.25 12.8917 20.0793 12.479 19.738 12.137C19.396 11.7957 18.9833 11.625 18.5 11.625C18.0167 11.625 17.6043 11.7957 17.263 12.137C16.921 12.479 16.75 12.8917 16.75 13.375C16.75 13.8417 16.921 14.25 17.263 14.6C17.6043 14.95 18.0167 15.125 18.5 15.125ZM4.875 13.3C4.50833 13.3 4.196 13.175 3.938 12.925C3.67933 12.675 3.55 12.3667 3.55 12C3.55 11.6333 3.67933 11.325 3.938 11.075C4.196 10.825 4.50833 10.7 4.875 10.7C5.24167 10.7 5.55 10.825 5.8 11.075C6.05 11.325 6.175 11.6333 6.175 12C6.175 12.3667 6.046 12.675 5.788 12.925C5.52933 13.175 5.225 13.3 4.875 13.3Z" fill="#FDFFFE"/>
</svg>
