<svg width="12" height="13" viewBox="0 0 12 13" fill="none" xmlns="http://www.w3.org/2000/svg">
<path d="M5.99998 7.88334C5.83331 7.88334 5.69442 7.82489 5.58331 7.708C5.4722 7.59156 5.41665 7.45556 5.41665 7.3C5.41665 7.13334 5.4722 6.99156 5.58331 6.87467C5.69442 6.75822 5.83331 6.7 5.99998 6.7C6.16665 6.7 6.30553 6.75822 6.41665 6.87467C6.52776 6.99156 6.58331 7.13334 6.58331 7.3C6.58331 7.45556 6.52776 7.59156 6.41665 7.708C6.30553 7.82489 6.16665 7.88334 5.99998 7.88334ZM3.33331 7.88334C3.16665 7.88334 3.02776 7.82489 2.91665 7.708C2.80554 7.59156 2.74998 7.45556 2.74998 7.3C2.74998 7.13334 2.80554 6.99156 2.91665 6.87467C3.02776 6.75822 3.16665 6.7 3.33331 6.7C3.49998 6.7 3.63887 6.75822 3.74998 6.87467C3.86109 6.99156 3.91665 7.13334 3.91665 7.3C3.91665 7.45556 3.86109 7.59156 3.74998 7.708C3.63887 7.82489 3.49998 7.88334 3.33331 7.88334ZM8.66665 7.88334C8.49998 7.88334 8.36109 7.82489 8.24998 7.708C8.13887 7.59156 8.08331 7.45556 8.08331 7.3C8.08331 7.13334 8.13887 6.99156 8.24998 6.87467C8.36109 6.75822 8.49998 6.7 8.66665 6.7C8.83331 6.7 8.9722 6.75822 9.08331 6.87467C9.19442 6.99156 9.24998 7.13334 9.24998 7.3C9.24998 7.45556 9.19442 7.59156 9.08331 7.708C8.9722 7.82489 8.83331 7.88334 8.66665 7.88334ZM5.99998 10.5C5.83331 10.5 5.69442 10.4418 5.58331 10.3253C5.4722 10.2084 5.41665 10.0722 5.41665 9.91667C5.41665 9.75 5.4722 9.60845 5.58331 9.492C5.69442 9.37511 5.83331 9.31667 5.99998 9.31667C6.16665 9.31667 6.30553 9.37511 6.41665 9.492C6.52776 9.60845 6.58331 9.75 6.58331 9.91667C6.58331 10.0722 6.52776 10.2084 6.41665 10.3253C6.30553 10.4418 6.16665 10.5 5.99998 10.5ZM3.33331 10.5C3.16665 10.5 3.02776 10.4418 2.91665 10.3253C2.80554 10.2084 2.74998 10.0722 2.74998 9.91667C2.74998 9.75 2.80554 9.60845 2.91665 9.492C3.02776 9.37511 3.16665 9.31667 3.33331 9.31667C3.49998 9.31667 3.63887 9.37511 3.74998 9.492C3.86109 9.60845 3.91665 9.75 3.91665 9.91667C3.91665 10.0722 3.86109 10.2084 3.74998 10.3253C3.63887 10.4418 3.49998 10.5 3.33331 10.5ZM8.66665 10.5C8.49998 10.5 8.36109 10.4418 8.24998 10.3253C8.13887 10.2084 8.08331 10.0722 8.08331 9.91667C8.08331 9.75 8.13887 9.60845 8.24998 9.492C8.36109 9.37511 8.49998 9.31667 8.66665 9.31667C8.83331 9.31667 8.9722 9.37511 9.08331 9.492C9.19442 9.60845 9.24998 9.75 9.24998 9.91667C9.24998 10.0722 9.19442 10.2084 9.08331 10.3253C8.9722 10.4418 8.83331 10.5 8.66665 10.5ZM1.53331 12.8333C1.19998 12.8333 0.916646 12.7167 0.683313 12.4833C0.44998 12.25 0.333313 11.9667 0.333313 11.6333V2.7C0.333313 2.36667 0.44998 2.08334 0.683313 1.85C0.916646 1.61667 1.19998 1.5 1.53331 1.5H2.46665V0.600003C2.46665 0.455558 2.51376 0.333336 2.60798 0.233336C2.70265 0.133336 2.8222 0.0833359 2.96665 0.0833359C3.1222 0.0833359 3.24709 0.133336 3.34131 0.233336C3.43598 0.333336 3.48331 0.455558 3.48331 0.600003V1.5H8.53331V0.583336C8.53331 0.450003 8.58331 0.333336 8.68331 0.233336C8.78331 0.133336 8.89998 0.0833359 9.03331 0.0833359C9.17776 0.0833359 9.29709 0.133336 9.39131 0.233336C9.48598 0.333336 9.53331 0.450003 9.53331 0.583336V1.5H10.4666C10.8 1.5 11.0833 1.61667 11.3166 1.85C11.55 2.08334 11.6666 2.36667 11.6666 2.7V11.6333C11.6666 11.9667 11.55 12.25 11.3166 12.4833C11.0833 12.7167 10.8 12.8333 10.4666 12.8333H1.53331ZM1.53331 11.8333H10.4666C10.5222 11.8333 10.5695 11.814 10.6086 11.7753C10.6473 11.7362 10.6666 11.6889 10.6666 11.6333V5.36667H1.33331V11.6333C1.33331 11.6889 1.35287 11.7362 1.39198 11.7753C1.43065 11.814 1.47776 11.8333 1.53331 11.8333ZM1.33331 4.36667H10.6666V2.7C10.6666 2.64445 10.6473 2.59734 10.6086 2.55867C10.5695 2.51956 10.5222 2.5 10.4666 2.5H1.53331C1.47776 2.5 1.43065 2.51956 1.39198 2.55867C1.35287 2.59734 1.33331 2.64445 1.33331 2.7V4.36667Z" fill="#031F00"/>
</svg>
