<svg width="23" height="23" viewBox="0 0 23 23" fill="none" xmlns="http://www.w3.org/2000/svg">
<path d="M6.98748 9.83334C6.54026 9.83334 6.20465 9.63423 5.98065 9.23601C5.75742 8.83701 5.76248 8.44306 5.99581 8.05417L10.3416 0.966673C10.575 0.597228 10.9055 0.412506 11.3333 0.412506C11.7611 0.412506 12.0916 0.597228 12.325 0.966673L16.6708 8.05417C16.9041 8.44306 16.9088 8.83701 16.6848 9.23601C16.4616 9.63423 16.1264 9.83334 15.6791 9.83334H6.98748ZM17.75 22.6667C16.2916 22.6667 15.0519 22.1565 14.0306 21.136C13.0102 20.1148 12.5 18.875 12.5 17.4167C12.5 15.9583 13.0102 14.7186 14.0306 13.6973C15.0519 12.6769 16.2916 12.1667 17.75 12.1667C19.2083 12.1667 20.4481 12.6769 21.4693 13.6973C22.4898 14.7186 23 15.9583 23 17.4167C23 18.875 22.4898 20.1148 21.4693 21.136C20.4481 22.1565 19.2083 22.6667 17.75 22.6667ZM1.99998 22.0833C1.66942 22.0833 1.39254 21.9713 1.16931 21.7473C0.945313 21.5241 0.833313 21.2472 0.833313 20.9167V13.9167C0.833313 13.5861 0.945313 13.3088 1.16931 13.0848C1.39254 12.8616 1.66942 12.75 1.99998 12.75H8.99998C9.33053 12.75 9.60781 12.8616 9.83181 13.0848C10.055 13.3088 10.1666 13.5861 10.1666 13.9167V20.9167C10.1666 21.2472 10.055 21.5241 9.83181 21.7473C9.60781 21.9713 9.33053 22.0833 8.99998 22.0833H1.99998Z" fill="#031F00"/>
</svg>
