<svg width="23" height="23" viewBox="0 0 23 23" fill="none" xmlns="http://www.w3.org/2000/svg">
<path d="M6.98749 9.83334C6.54027 9.83334 6.2 9.63423 5.96666 9.23601C5.73333 8.83701 5.74305 8.44306 5.99583 8.05417L10.3417 0.966673C10.575 0.597228 10.9056 0.412506 11.3333 0.412506C11.7611 0.412506 12.0917 0.597228 12.325 0.966673L16.6708 8.05417C16.9236 8.44306 16.9333 8.83701 16.7 9.23601C16.4667 9.63423 16.1264 9.83334 15.6792 9.83334H6.98749ZM17.75 22.6667C16.2917 22.6667 15.0519 22.1565 14.0307 21.136C13.0102 20.1148 12.5 18.875 12.5 17.4167C12.5 15.9583 13.0102 14.7186 14.0307 13.6973C15.0519 12.6769 16.2917 12.1667 17.75 12.1667C19.2083 12.1667 20.4481 12.6769 21.4693 13.6973C22.4898 14.7186 23 15.9583 23 17.4167C23 18.875 22.4898 20.1148 21.4693 21.136C20.4481 22.1565 19.2083 22.6667 17.75 22.6667ZM1.99999 22.0833C1.66944 22.0833 1.39255 21.9713 1.16933 21.7473C0.945328 21.5241 0.833328 21.2472 0.833328 20.9167V13.9167C0.833328 13.5861 0.945328 13.3088 1.16933 13.0848C1.39255 12.8616 1.66944 12.75 1.99999 12.75H8.99999C9.33055 12.75 9.60783 12.8616 9.83183 13.0848C10.0551 13.3088 10.1667 13.5861 10.1667 13.9167V20.9167C10.1667 21.2472 10.0551 21.5241 9.83183 21.7473C9.60783 21.9713 9.33055 22.0833 8.99999 22.0833H1.99999ZM17.75 20.3333C18.5667 20.3333 19.2569 20.0514 19.8208 19.4875C20.3847 18.9236 20.6667 18.2333 20.6667 17.4167C20.6667 16.6 20.3847 15.9097 19.8208 15.3458C19.2569 14.7819 18.5667 14.5 17.75 14.5C16.9333 14.5 16.2431 14.7819 15.6792 15.3458C15.1153 15.9097 14.8333 16.6 14.8333 17.4167C14.8333 18.2333 15.1153 18.9236 15.6792 19.4875C16.2431 20.0514 16.9333 20.3333 17.75 20.3333ZM3.16666 19.75H7.83333V15.0833H3.16666V19.75ZM9.05833 7.50001H13.6083L11.3333 3.82501L9.05833 7.50001Z" fill="#031F00"/>
</svg>
