<svg width="20" height="20" viewBox="0 0 20 20" fill="none" xmlns="http://www.w3.org/2000/svg">
<rect width="20" height="20" rx="4" fill="#609C77"/>
<path d="M8.33333 12.3321L7.97978 11.9785L6.25061 10.2494C6.25043 10.2492 6.25022 10.249 6.24997 10.2487C6.2459 10.2443 6.23204 10.2292 6.16667 10.2292C6.1013 10.2292 6.08743 10.2443 6.08337 10.2487C6.08312 10.249 6.08291 10.2492 6.08272 10.2494C6.08253 10.2496 6.0823 10.2498 6.08203 10.25C6.07761 10.2541 6.0625 10.268 6.0625 10.3333C6.0625 10.3939 6.07546 10.4102 6.08089 10.4156L6.08094 10.4155L6.08272 10.4173L8.16427 12.478L8.16605 12.4798C8.23648 12.5502 8.28682 12.5625 8.33333 12.5625C8.37985 12.5625 8.43018 12.5502 8.50061 12.4798L8.50129 12.4791L13.9173 7.08394C13.9175 7.08376 13.9177 7.08354 13.918 7.08329C13.918 7.08329 13.918 7.08329 13.918 7.08328M8.33333 12.3321L13.3958 6.56249C13.5069 6.45138 13.6528 6.39583 13.8333 6.39583C14.0139 6.39583 14.1597 6.45138 14.2708 6.56249C14.3819 6.67361 14.4375 6.81944 14.4375 6.99999C14.4375 7.18055 14.3819 7.32638 14.2708 7.43749L13.918 7.08328M8.33333 12.3321L8.68689 11.9785L13.7494 6.91605C13.7496 6.91586 13.7498 6.91563 13.75 6.91536C13.7541 6.91094 13.768 6.89583 13.8333 6.89583C13.8987 6.89583 13.9126 6.91094 13.9166 6.91536C13.9169 6.91563 13.9171 6.91586 13.9173 6.91605C13.9175 6.91623 13.9177 6.91645 13.918 6.9167C13.9224 6.92076 13.9375 6.93463 13.9375 6.99999C13.9375 7.0653 13.9224 7.0792 13.918 7.08328M8.33333 12.3321L13.918 7.08328" fill="#FDFFFE" stroke="#FDFFFE"/>
</svg>
