<svg width="7" height="12" viewBox="0 0 7 12" fill="none" xmlns="http://www.w3.org/2000/svg">
<path d="M0.699999 11.3C0.516666 11.1167 0.424999 10.8833 0.424999 10.6C0.424999 10.3167 0.516666 10.0833 0.699999 9.9L4.6 6L0.699999 2.1C0.516666 1.91667 0.424999 1.68334 0.424999 1.4C0.424999 1.11667 0.516666 0.883336 0.699999 0.700003C0.883332 0.516669 1.11667 0.425003 1.4 0.425003C1.68333 0.425003 1.91667 0.516669 2.1 0.700003L6.7 5.3C6.8 5.4 6.871 5.50834 6.913 5.625C6.95433 5.74167 6.975 5.86667 6.975 6C6.975 6.13334 6.95433 6.25834 6.913 6.375C6.871 6.49167 6.8 6.6 6.7 6.7L2.1 11.3C1.91667 11.4833 1.68333 11.575 1.4 11.575C1.11667 11.575 0.883332 11.4833 0.699999 11.3Z" fill="#031F00"/>
</svg>
