<svg width="30" height="24" viewBox="0 0 30 24" fill="none" xmlns="http://www.w3.org/2000/svg">
<path d="M3 23.25C2.375 23.25 1.844 23.031 1.407 22.593C0.969 22.156 0.75 21.625 0.75 21V15.6C1.6 15.45 2.3125 15.0375 2.8875 14.3625C3.4625 13.6875 3.75 12.9 3.75 12C3.75 11.1 3.4625 10.3125 2.8875 9.6375C2.3125 8.9625 1.6 8.55 0.75 8.4V3C0.75 2.375 0.969 1.844 1.407 1.407C1.844 0.969 2.375 0.75 3 0.75H27C27.625 0.75 28.156 0.969 28.593 1.407C29.031 1.844 29.25 2.375 29.25 3V8.4C28.4 8.55 27.6875 8.9625 27.1125 9.6375C26.5375 10.3125 26.25 11.1 26.25 12C26.25 12.9 26.5375 13.6875 27.1125 14.3625C27.6875 15.0375 28.4 15.45 29.25 15.6V21C29.25 21.625 29.031 22.156 28.593 22.593C28.156 23.031 27.625 23.25 27 23.25H3ZM3 21H27V17.175C26.075 16.625 25.344 15.894 24.807 14.982C24.269 14.069 24 13.075 24 12C24 10.925 24.269 9.931 24.807 9.018C25.344 8.106 26.075 7.375 27 6.825V3H3V6.825C3.925 7.375 4.6565 8.106 5.1945 9.018C5.7315 9.931 6 10.925 6 12C6 13.075 5.7315 14.069 5.1945 14.982C4.6565 15.894 3.925 16.625 3 17.175V21ZM15 18.975C15.325 18.975 15.594 18.869 15.807 18.657C16.019 18.444 16.125 18.175 16.125 17.85C16.125 17.525 16.019 17.2565 15.807 17.0445C15.594 16.8315 15.325 16.725 15 16.725C14.675 16.725 14.4065 16.8315 14.1945 17.0445C13.9815 17.2565 13.875 17.525 13.875 17.85C13.875 18.175 13.9815 18.444 14.1945 18.657C14.4065 18.869 14.675 18.975 15 18.975ZM15 13.125C15.325 13.125 15.594 13.0185 15.807 12.8055C16.019 12.5935 16.125 12.325 16.125 12C16.125 11.675 16.019 11.406 15.807 11.193C15.594 10.981 15.325 10.875 15 10.875C14.675 10.875 14.4065 10.981 14.1945 11.193C13.9815 11.406 13.875 11.675 13.875 12C13.875 12.325 13.9815 12.5935 14.1945 12.8055C14.4065 13.0185 14.675 13.125 15 13.125ZM15 7.275C15.325 7.275 15.594 7.1685 15.807 6.9555C16.019 6.7435 16.125 6.475 16.125 6.15C16.125 5.825 16.019 5.556 15.807 5.343C15.594 5.131 15.325 5.025 15 5.025C14.675 5.025 14.4065 5.131 14.1945 5.343C13.9815 5.556 13.875 5.825 13.875 6.15C13.875 6.475 13.9815 6.7435 14.1945 6.9555C14.4065 7.1685 14.675 7.275 15 7.275Z" fill="#1C1B1F"/>
</svg>
