<svg width="15" height="16" viewBox="0 0 15 16" fill="none" xmlns="http://www.w3.org/2000/svg">
<path d="M8.41663 15.6042L8.29163 13.4167H7.58329C5.72218 13.4167 4.14579 12.7708 2.85413 11.4792C1.56246 10.1875 0.916626 8.61111 0.916626 6.75C0.916626 4.88889 1.56246 3.3125 2.85413 2.02084C4.14579 0.729169 5.72218 0.0833359 7.58329 0.0833359C8.51385 0.0833359 9.3819 0.256947 10.1875 0.604169C10.993 0.951391 11.698 1.42722 12.3025 2.03167C12.9063 2.63556 13.3819 3.34028 13.7291 4.14584C14.0763 4.95139 14.25 5.81945 14.25 6.75C14.25 8.65278 13.6977 10.3783 12.5933 11.9267C11.4894 13.4756 10.0972 14.7014 8.41663 15.6042ZM7.58329 11.1458C7.79163 11.1458 7.96524 11.0728 8.10413 10.9267C8.24301 10.7811 8.31246 10.6111 8.31246 10.4167C8.31246 10.2083 8.24301 10.0311 8.10413 9.885C7.96524 9.73945 7.79163 9.66667 7.58329 9.66667C7.37496 9.66667 7.20135 9.73945 7.06246 9.885C6.92357 10.0311 6.85413 10.2083 6.85413 10.4167C6.85413 10.6111 6.92357 10.7811 7.06246 10.9267C7.20135 11.0728 7.37496 11.1458 7.58329 11.1458ZM7.60413 8.60417C7.71524 8.60417 7.82301 8.55889 7.92746 8.46834C8.03135 8.37834 8.10413 8.25695 8.14579 8.10417C8.17357 7.90972 8.24996 7.72917 8.37496 7.5625C8.49996 7.39584 8.72218 7.15278 9.04163 6.83334C9.29163 6.59722 9.49301 6.34389 9.64579 6.07334C9.79857 5.80222 9.87496 5.5 9.87496 5.16667C9.87496 4.51389 9.6494 4.01389 9.19829 3.66667C8.74663 3.31945 8.21524 3.14584 7.60413 3.14584C7.14579 3.14584 6.74663 3.25334 6.40663 3.46834C6.06607 3.68389 5.79163 3.95139 5.58329 4.27084C5.49996 4.39584 5.48274 4.52417 5.53163 4.65584C5.57996 4.78806 5.68051 4.88195 5.83329 4.9375C5.9444 4.97917 6.05885 4.97917 6.17663 4.9375C6.29496 4.89584 6.39579 4.8125 6.47913 4.6875C6.59024 4.52084 6.73607 4.37834 6.91663 4.26C7.09718 4.14222 7.32635 4.08334 7.60413 4.08334C8.02079 4.08334 8.33329 4.20139 8.54163 4.4375C8.74996 4.67361 8.85413 4.93056 8.85413 5.20834C8.85413 5.45834 8.78468 5.67722 8.64579 5.865C8.5069 6.05222 8.32635 6.25695 8.10413 6.47917C7.74301 6.78472 7.49663 7.04861 7.36496 7.27084C7.23274 7.49306 7.15274 7.77084 7.12496 8.10417C7.11107 8.22917 7.1494 8.34361 7.23996 8.4475C7.32996 8.55195 7.45135 8.60417 7.60413 8.60417ZM9.66663 12.1667V13.2917C10.6527 12.4583 11.4547 11.4828 12.0725 10.365C12.6908 9.24667 13 8.04167 13 6.75C13 5.23611 12.4758 3.95472 11.4275 2.90584C10.3786 1.8575 9.09718 1.33334 7.58329 1.33334C6.0694 1.33334 4.78829 1.8575 3.73996 2.90584C2.69107 3.95472 2.16663 5.23611 2.16663 6.75C2.16663 8.26389 2.69107 9.54528 3.73996 10.5942C4.78829 11.6425 6.0694 12.1667 7.58329 12.1667H9.66663Z" fill="#031F00"/>
</svg>
