<svg width="13" height="13" viewBox="0 0 13 13" fill="none" xmlns="http://www.w3.org/2000/svg">
<path d="M1.65003 12.3167C1.59447 12.3167 1.54447 12.3029 1.50003 12.2753C1.45558 12.2473 1.42781 12.2111 1.41669 12.1667L1.00003 11.7667C0.933361 11.6667 0.925139 11.5667 0.975361 11.4667C1.02514 11.3667 1.11114 11.3167 1.23336 11.3167H12.6334C12.7556 11.3167 12.8418 11.3667 12.892 11.4667C12.9418 11.5667 12.9334 11.6667 12.8667 11.7667L12.45 12.1667C12.4278 12.2111 12.3945 12.2473 12.35 12.2753C12.3056 12.3029 12.2611 12.3167 12.2167 12.3167H1.65003ZM1.21669 10.4C1.28336 10.2333 1.36669 10.0722 1.46669 9.91667C1.56669 9.76111 1.68892 9.61111 1.83336 9.46667V4.38334H1.56669C1.44447 4.38334 1.34736 4.34711 1.27536 4.27467C1.20292 4.20267 1.16669 4.10556 1.16669 3.98334C1.16669 3.87222 1.20292 3.77778 1.27536 3.7C1.34736 3.62222 1.44447 3.58334 1.56669 3.58334H1.83336V3.03334H1.56669C1.44447 3.03334 1.34736 2.99445 1.27536 2.91667C1.20292 2.83889 1.16669 2.74445 1.16669 2.63334C1.16669 2.51111 1.20292 2.41378 1.27536 2.34134C1.34736 2.26934 1.44447 2.23334 1.56669 2.23334H1.83336V1.66667H1.56669C1.44447 1.66667 1.34736 1.62778 1.27536 1.55C1.20292 1.47222 1.16669 1.37778 1.16669 1.26667C1.16669 1.15556 1.20292 1.06111 1.27536 0.983335C1.34736 0.905558 1.44447 0.866669 1.56669 0.866669H5.46669C5.81114 0.866669 6.1138 0.991558 6.37469 1.24134C6.63603 1.49156 6.76669 1.82222 6.76669 2.23334H12.5667C12.6778 2.23334 12.7722 2.26934 12.85 2.34134C12.9278 2.41378 12.9667 2.51111 12.9667 2.63334C12.9667 2.74445 12.9278 2.83889 12.85 2.91667C12.7722 2.99445 12.6778 3.03334 12.5667 3.03334H6.76669C6.76669 3.43334 6.63603 3.75822 6.37469 4.008C6.1138 4.25822 5.81114 4.38334 5.46669 4.38334H4.30003V8.65C4.51114 8.67222 4.71669 8.71667 4.91669 8.78334C5.11669 8.85 5.30003 8.95 5.46669 9.08334C5.65558 8.42778 6.04447 7.87222 6.63336 7.41667C7.22225 6.96111 7.92225 6.73334 8.73336 6.73334C9.72225 6.73334 10.5527 7.07489 11.2247 7.758C11.8971 8.44156 12.2056 9.26111 12.15 10.2167V10.4H1.21669ZM6.45003 9.4H11.0167C10.8945 8.91111 10.6249 8.51111 10.208 8.2C9.79158 7.88889 9.30003 7.73334 8.73336 7.73334C8.1778 7.73334 7.68625 7.89156 7.25869 8.208C6.83069 8.52489 6.56114 8.92222 6.45003 9.4ZM4.30003 2.23334H5.76669V1.86667C5.76669 1.82222 5.74447 1.77778 5.70003 1.73334C5.65558 1.68889 5.61114 1.66667 5.56669 1.66667H4.30003V2.23334ZM4.30003 3.58334H5.56669C5.61114 3.58334 5.65558 3.56378 5.70003 3.52467C5.74447 3.486 5.76669 3.43889 5.76669 3.38334V3.03334H4.30003V3.58334ZM2.63336 2.23334H3.50003V1.66667H2.63336V2.23334ZM2.63336 3.58334H3.50003V3.03334H2.63336V3.58334ZM2.63336 8.9C2.76669 8.82222 2.90269 8.76111 3.04136 8.71667C3.18047 8.67222 3.33336 8.63889 3.50003 8.61667V4.38334H2.63336V8.9Z" fill="#FDFFFE"/>
</svg>
