<svg width="12" height="13" viewBox="0 0 12 13" fill="none" xmlns="http://www.w3.org/2000/svg">
<path d="M7.79998 10.5C7.36665 10.5 6.99998 10.35 6.69998 10.05C6.39998 9.75 6.24998 9.38889 6.24998 8.96667C6.24998 8.53334 6.39998 8.16667 6.69998 7.86667C6.99998 7.56667 7.36665 7.41667 7.79998 7.41667C8.2222 7.41667 8.58331 7.56667 8.88331 7.86667C9.18331 8.16667 9.33331 8.53334 9.33331 8.96667C9.33331 9.38889 9.18331 9.75 8.88331 10.05C8.58331 10.35 8.2222 10.5 7.79998 10.5ZM1.53331 12.8333C1.19998 12.8333 0.916646 12.7167 0.683313 12.4833C0.44998 12.25 0.333313 11.9667 0.333313 11.6333V2.7C0.333313 2.36667 0.44998 2.08334 0.683313 1.85C0.916646 1.61667 1.19998 1.5 1.53331 1.5H2.46665V0.600003C2.46665 0.455558 2.51376 0.333336 2.60798 0.233336C2.70265 0.133336 2.8222 0.0833359 2.96665 0.0833359C3.1222 0.0833359 3.24709 0.133336 3.34131 0.233336C3.43598 0.333336 3.48331 0.455558 3.48331 0.600003V1.5H8.53331V0.583336C8.53331 0.450003 8.58331 0.333336 8.68331 0.233336C8.78331 0.133336 8.89998 0.0833359 9.03331 0.0833359C9.17776 0.0833359 9.29709 0.133336 9.39131 0.233336C9.48598 0.333336 9.53331 0.450003 9.53331 0.583336V1.5H10.4666C10.8 1.5 11.0833 1.61667 11.3166 1.85C11.55 2.08334 11.6666 2.36667 11.6666 2.7V11.6333C11.6666 11.9667 11.55 12.25 11.3166 12.4833C11.0833 12.7167 10.8 12.8333 10.4666 12.8333H1.53331ZM1.53331 11.8333H10.4666C10.5222 11.8333 10.5695 11.814 10.6086 11.7753C10.6473 11.7362 10.6666 11.6889 10.6666 11.6333V5.36667H1.33331V11.6333C1.33331 11.6889 1.35287 11.7362 1.39198 11.7753C1.43065 11.814 1.47776 11.8333 1.53331 11.8333ZM1.33331 4.36667H10.6666V2.7C10.6666 2.64445 10.6473 2.59734 10.6086 2.55867C10.5695 2.51956 10.5222 2.5 10.4666 2.5H1.53331C1.47776 2.5 1.43065 2.51956 1.39198 2.55867C1.35287 2.59734 1.33331 2.64445 1.33331 2.7V4.36667Z" fill="#031F00"/>
</svg>
