<svg width="10" height="7" viewBox="0 0 10 7" fill="none" xmlns="http://www.w3.org/2000/svg">
<path d="M4.99999 6.45799C4.88866 6.45799 4.78099 6.43732 4.67699 6.39599C4.57299 6.35399 4.47233 6.28466 4.37499 6.18799L0.603995 2.41699C0.437328 2.25032 0.360995 2.04199 0.374995 1.79199C0.388995 1.54199 0.472328 1.34066 0.624995 1.18799C0.805661 1.00733 1.01399 0.920325 1.24999 0.926992C1.48599 0.934325 1.68733 1.02133 1.85399 1.18799L4.99999 4.35399L8.16699 1.18799C8.33366 1.02133 8.53133 0.937992 8.75999 0.937992C8.98933 0.937992 9.19433 1.02799 9.37499 1.20799C9.54166 1.37466 9.62499 1.57966 9.62499 1.82299C9.62499 2.06632 9.54166 2.27132 9.37499 2.43799L5.62499 6.18799C5.52766 6.28466 5.42699 6.35399 5.32299 6.39599C5.21899 6.43732 5.11133 6.45799 4.99999 6.45799Z" fill="#031F00"/>
</svg>
