<svg width="24" height="20" viewBox="0 0 24 20" fill="none" xmlns="http://www.w3.org/2000/svg">
<path d="M10.5708 19.4583L8.90829 17.9125C6.82774 16.0264 4.97585 14.1741 3.35263 12.3557C1.72863 10.538 0.916626 8.58889 0.916626 6.50833C0.916626 4.85555 1.47585 3.46994 2.59429 2.3515C3.71196 1.23383 5.09718 0.674999 6.74996 0.674999C7.68329 0.674999 8.61196 0.893555 9.53596 1.33067C10.4592 1.76855 11.2805 2.47361 12 3.44583C12.7194 2.47361 13.5411 1.76855 14.4651 1.33067C15.3883 0.893555 16.3166 0.674999 17.25 0.674999C18.9027 0.674999 20.288 1.23383 21.4056 2.3515C22.5241 3.46994 23.0833 4.85555 23.0833 6.50833C23.0833 8.60833 22.2569 10.5769 20.6041 12.414C18.9513 14.2519 17.1041 16.0944 15.0625 17.9417L13.4291 19.4292C13.0208 19.7986 12.5444 19.9833 12 19.9833C11.4555 19.9833 10.9791 19.8083 10.5708 19.4583Z" fill="#609C77"/>
</svg>
