<svg width="15" height="16" viewBox="0 0 15 16" fill="none" xmlns="http://www.w3.org/2000/svg">
<path d="M0.979167 15.2917C0.8125 15.2917 0.670278 15.2328 0.5525 15.115C0.434167 14.9967 0.375 14.8472 0.375 14.6667C0.375 14.4861 0.4375 14.3367 0.5625 14.2183C0.6875 14.1006 0.833333 14.0417 1 14.0417H9.35417C9.53472 14.0417 9.68056 14.1006 9.79167 14.2183C9.90278 14.3367 9.95833 14.4861 9.95833 14.6667C9.95833 14.8472 9.89944 14.9967 9.78167 15.115C9.66333 15.2328 9.51389 15.2917 9.33333 15.2917H0.979167ZM4.14583 9.91667L1.85417 7.625C1.5625 7.33333 1.41333 6.97917 1.40667 6.5625C1.39944 6.14583 1.54167 5.79167 1.83333 5.5L2.33333 5L6.79167 9.41667L6.29167 9.91667C6 10.2083 5.6425 10.3542 5.21917 10.3542C4.79528 10.3542 4.4375 10.2083 4.14583 9.91667ZM10.0833 6.125L5.66667 1.66667L6.16667 1.16667C6.45833 0.875 6.8125 0.7325 7.22917 0.739167C7.64583 0.746389 8 0.895833 8.29167 1.1875L10.5833 3.47917C10.875 3.77083 11.0208 4.12833 11.0208 4.55167C11.0208 4.97556 10.875 5.33333 10.5833 5.625L10.0833 6.125ZM13.7292 13.9375L3.58333 3.79167L4.45833 2.91667L14.625 13.0833C14.7361 13.1944 14.7883 13.3369 14.7817 13.5108C14.7744 13.6842 14.7153 13.8264 14.6042 13.9375C14.4792 14.0625 14.3333 14.125 14.1667 14.125C14 14.125 13.8542 14.0625 13.7292 13.9375Z" fill="#031F00"/>
</svg>
