<svg width="15" height="16" viewBox="0 0 15 16" fill="none" xmlns="http://www.w3.org/2000/svg">
<path d="M7.66665 7.75L9.95832 10.0417C10.0694 10.1528 10.125 10.2953 10.125 10.4692C10.125 10.6425 10.0694 10.7917 9.95832 10.9167C9.83332 11.0417 9.68415 11.1042 9.51082 11.1042C9.33693 11.1042 9.18749 11.0417 9.06249 10.9167L6.62499 8.47917C6.55554 8.39583 6.5036 8.30889 6.46915 8.21833C6.43415 8.12833 6.41665 8.03472 6.41665 7.9375V4.45833C6.41665 4.27778 6.47582 4.12861 6.59415 4.01083C6.71193 3.8925 6.8611 3.83333 7.04165 3.83333C7.20832 3.83333 7.35415 3.8925 7.47915 4.01083C7.60415 4.12861 7.66665 4.27778 7.66665 4.45833V7.75ZM6.97915 15.0833C5.35415 15.0833 3.90638 14.5939 2.63582 13.615C1.36471 12.6356 0.53471 11.3681 0.145821 9.8125C0.0902659 9.63194 0.107766 9.45833 0.198321 9.29167C0.288321 9.125 0.423599 9.02083 0.604155 8.97917C0.78471 8.9375 0.944433 8.97222 1.08332 9.08333C1.22221 9.19444 1.31943 9.34028 1.37499 9.52083C1.70832 10.7986 2.39582 11.8367 3.43749 12.635C4.47915 13.4339 5.65971 13.8333 6.97915 13.8333C8.60415 13.8333 9.98277 13.2672 11.115 12.135C12.2467 11.0033 12.8125 9.625 12.8125 8C12.8125 6.375 12.2467 4.99639 11.115 3.86417C9.98277 2.7325 8.60415 2.16667 6.97915 2.16667C6.07638 2.16667 5.22582 2.36805 4.42749 2.77083C3.6286 3.17361 2.94443 3.72917 2.37499 4.4375H3.91665C4.09721 4.4375 4.24665 4.49639 4.36499 4.61417C4.48277 4.7325 4.54165 4.88194 4.54165 5.0625C4.54165 5.24306 4.48277 5.39222 4.36499 5.51C4.24665 5.62833 4.09721 5.6875 3.91665 5.6875H1.06249C0.854155 5.6875 0.676932 5.61444 0.530821 5.46833C0.385266 5.32278 0.312488 5.14583 0.312488 4.9375V2.08333C0.312488 1.90278 0.371655 1.75333 0.489988 1.635C0.607766 1.51722 0.756932 1.45833 0.937488 1.45833C1.11804 1.45833 1.26749 1.51722 1.38582 1.635C1.5036 1.75333 1.56249 1.90278 1.56249 2.08333V3.4375C2.24304 2.63194 3.05554 2.01028 3.99999 1.5725C4.94443 1.13528 5.93749 0.916666 6.97915 0.916666C7.96527 0.916666 8.88888 1.10417 9.74999 1.47917C10.6111 1.85417 11.3611 2.36111 12 3C12.6389 3.63889 13.1422 4.38555 13.51 5.24C13.8783 6.09389 14.0625 7.01389 14.0625 8C14.0625 8.98611 13.8783 9.90611 13.51 10.76C13.1422 11.6144 12.6389 12.3611 12 13C11.3611 13.6389 10.6111 14.1458 9.74999 14.5208C8.88888 14.8958 7.96527 15.0833 6.97915 15.0833Z" fill="#031F00"/>
</svg>
