<svg width="20" height="21" viewBox="0 0 20 21" fill="none" xmlns="http://www.w3.org/2000/svg">
<path d="M3.00001 20.5C2.35834 20.5 1.80923 20.2717 1.35267 19.8152C0.895338 19.3578 0.666672 18.8083 0.666672 18.1667V7.66668C0.666672 7.29723 0.749505 6.94723 0.915172 6.61668C1.08006 6.28612 1.30834 6.0139 1.60001 5.80001L8.60001 0.55001C8.81389 0.394455 9.03751 0.277788 9.27084 0.20001C9.50417 0.122232 9.74723 0.0833435 10 0.0833435C10.2528 0.0833435 10.4958 0.122232 10.7292 0.20001C10.9625 0.277788 11.1861 0.394455 11.4 0.55001L18.4 5.80001C18.6917 6.0139 18.9203 6.28612 19.086 6.61668C19.2509 6.94723 19.3333 7.29723 19.3333 7.66668V18.1667C19.3333 18.8083 19.1051 19.3578 18.6485 19.8152C18.1912 20.2717 17.6417 20.5 17 20.5H12.3333V12.3333H7.66667V20.5H3.00001Z" fill="#031F00"/>
</svg>
