<svg width="20" height="21" viewBox="0 0 20 21" fill="none" xmlns="http://www.w3.org/2000/svg">
<path d="M2.99999 18.1667H6.49999V11.1667H13.5V18.1667H17V7.66668L9.99999 2.41668L2.99999 7.66668V18.1667ZM2.99999 20.5C2.35832 20.5 1.80921 20.2717 1.35266 19.8152C0.895323 19.3578 0.666656 18.8083 0.666656 18.1667V7.66668C0.666656 7.29723 0.74949 6.94723 0.915156 6.61668C1.08005 6.28612 1.30832 6.0139 1.59999 5.80001L8.59999 0.55001C8.81388 0.394455 9.03749 0.277788 9.27082 0.20001C9.50416 0.122232 9.74721 0.0833435 9.99999 0.0833435C10.2528 0.0833435 10.4958 0.122232 10.7292 0.20001C10.9625 0.277788 11.1861 0.394455 11.4 0.55001L18.4 5.80001C18.6917 6.0139 18.9203 6.28612 19.086 6.61668C19.2509 6.94723 19.3333 7.29723 19.3333 7.66668V18.1667C19.3333 18.8083 19.105 19.3578 18.6485 19.8152C18.1912 20.2717 17.6417 20.5 17 20.5H11.1667V13.5H8.83332V20.5H2.99999Z" fill="#031F00"/>
</svg>
