<svg width="16" height="16" viewBox="0 0 16 16" fill="none" xmlns="http://www.w3.org/2000/svg">
<path d="M8.00004 11.9583C8.1806 11.9583 8.33004 11.8994 8.44837 11.7817C8.56615 11.6633 8.62504 11.5139 8.62504 11.3333V7.77083C8.62504 7.60416 8.56615 7.46166 8.44837 7.34333C8.33004 7.22555 8.1806 7.16666 8.00004 7.16666C7.81948 7.16666 7.67032 7.22555 7.55254 7.34333C7.43421 7.46166 7.37504 7.61111 7.37504 7.79166V11.3542C7.37504 11.5208 7.43421 11.6633 7.55254 11.7817C7.67032 11.8994 7.81948 11.9583 8.00004 11.9583ZM8.00004 5.74999C8.19448 5.74999 8.35421 5.68388 8.47921 5.55166C8.60421 5.42 8.66671 5.25694 8.66671 5.0625C8.66671 4.88194 8.60421 4.72555 8.47921 4.59333C8.35421 4.46166 8.19448 4.39583 8.00004 4.39583C7.8056 4.39583 7.64587 4.46166 7.52087 4.59333C7.39587 4.72555 7.33337 4.88194 7.33337 5.0625C7.33337 5.25694 7.39587 5.42 7.52087 5.55166C7.64587 5.68388 7.8056 5.74999 8.00004 5.74999ZM8.00004 15.9167C6.90282 15.9167 5.87171 15.7083 4.90671 15.2917C3.94115 14.875 3.10421 14.3125 2.39587 13.6042C1.68754 12.8958 1.12504 12.0589 0.708374 11.0933C0.291707 10.1283 0.083374 9.09722 0.083374 7.99999C0.083374 6.90277 0.291707 5.87138 0.708374 4.90583C1.12504 3.94083 1.68754 3.10416 2.39587 2.39583C3.10421 1.68749 3.94115 1.12499 4.90671 0.708328C5.87171 0.291662 6.90282 0.0833282 8.00004 0.0833282C9.09726 0.0833282 10.1287 0.291662 11.0942 0.708328C12.0592 1.12499 12.8959 1.68749 13.6042 2.39583C14.3125 3.10416 14.875 3.94083 15.2917 4.90583C15.7084 5.87138 15.9167 6.90277 15.9167 7.99999C15.9167 9.09722 15.7084 10.1283 15.2917 11.0933C14.875 12.0589 14.3125 12.8958 13.6042 13.6042C12.8959 14.3125 12.0592 14.875 11.0942 15.2917C10.1287 15.7083 9.09726 15.9167 8.00004 15.9167ZM8.00004 14.6667C9.84726 14.6667 11.4203 14.0175 12.7192 12.7192C14.0175 11.4203 14.6667 9.84722 14.6667 7.99999C14.6667 6.15277 14.0175 4.57972 12.7192 3.28083C11.4203 1.98249 9.84726 1.33333 8.00004 1.33333C6.15282 1.33333 4.58004 1.98249 3.28171 3.28083C1.98282 4.57972 1.33337 6.15277 1.33337 7.99999C1.33337 9.84722 1.98282 11.4203 3.28171 12.7192C4.58004 14.0175 6.15282 14.6667 8.00004 14.6667Z" fill="#031F00"/>
</svg>
