<svg width="18" height="25" viewBox="0 0 18 25" fill="none" xmlns="http://www.w3.org/2000/svg">
<path d="M9 16.375C8.74722 16.375 8.53839 16.2922 8.3735 16.1265C8.20783 15.9616 8.125 15.7528 8.125 15.5V3.5125L6.57917 5.05833C6.40417 5.21389 6.2 5.29167 5.96667 5.29167C5.73333 5.29167 5.52917 5.20417 5.35417 5.02917C5.17917 4.85417 5.09167 4.65 5.09167 4.41667C5.09167 4.18333 5.17917 3.97917 5.35417 3.80417L8.27083 0.887499C8.36806 0.790277 8.48006 0.717166 8.60683 0.668166C8.73283 0.619944 8.86389 0.595833 9 0.595833C9.13611 0.595833 9.26756 0.619944 9.39433 0.668166C9.52033 0.717166 9.63194 0.790277 9.72917 0.887499L12.6458 3.80417C12.8208 3.97917 12.9083 4.188 12.9083 4.43067C12.9083 4.67411 12.8208 4.88333 12.6458 5.05833C12.4708 5.21389 12.2667 5.29167 12.0333 5.29167C11.8 5.29167 11.5958 5.21389 11.4208 5.05833L9.875 3.5125V15.5C9.875 15.7528 9.79256 15.9616 9.62767 16.1265C9.462 16.2922 9.25278 16.375 9 16.375ZM2.35 24.25C1.76667 24.25 1.27083 24.0458 0.8625 23.6375C0.454167 23.2292 0.25 22.7333 0.25 22.15V10.0167C0.25 9.43333 0.454167 8.9375 0.8625 8.52917C1.27083 8.12083 1.76667 7.91667 2.35 7.91667H4.47917C4.7125 7.91667 4.91667 7.99911 5.09167 8.164C5.26667 8.32967 5.35417 8.53889 5.35417 8.79167C5.35417 9.04444 5.26667 9.25328 5.09167 9.41817C4.91667 9.58383 4.7125 9.66667 4.47917 9.66667H2.35C2.27222 9.66667 2.19444 9.70555 2.11667 9.78333C2.03889 9.86111 2 9.93889 2 10.0167V22.15C2 22.2278 2.03889 22.3056 2.11667 22.3833C2.19444 22.4611 2.27222 22.5 2.35 22.5H15.65C15.7278 22.5 15.8056 22.4611 15.8833 22.3833C15.9611 22.3056 16 22.2278 16 22.15V10.0167C16 9.93889 15.9611 9.86111 15.8833 9.78333C15.8056 9.70555 15.7278 9.66667 15.65 9.66667H13.5208C13.2875 9.66667 13.0833 9.58383 12.9083 9.41817C12.7333 9.25328 12.6458 9.04444 12.6458 8.79167C12.6458 8.53889 12.7333 8.32967 12.9083 8.164C13.0833 7.99911 13.2875 7.91667 13.5208 7.91667H15.65C16.2333 7.91667 16.7292 8.12083 17.1375 8.52917C17.5458 8.9375 17.75 9.43333 17.75 10.0167V22.15C17.75 22.7333 17.5458 23.2292 17.1375 23.6375C16.7292 24.0458 16.2333 24.25 15.65 24.25H2.35Z" fill="#609C77"/>
</svg>
