<svg width="14" height="16" viewBox="0 0 14 16" fill="none" xmlns="http://www.w3.org/2000/svg">
<path d="M10.0208 11.3125C9.89583 11.1736 9.83333 11.0208 9.83333 10.8542C9.83333 10.6875 9.89583 10.5417 10.0208 10.4167L11.6042 8.83334H5.22917C5.04861 8.83334 4.89944 8.77417 4.78167 8.65584C4.66333 8.53806 4.60417 8.38889 4.60417 8.20834C4.60417 8.02778 4.66333 7.87834 4.78167 7.76C4.89944 7.64223 5.04861 7.58334 5.22917 7.58334H11.6042L10.0208 5.97917C9.89583 5.85417 9.83333 5.70834 9.83333 5.54167C9.83333 5.37501 9.89583 5.22917 10.0208 5.10417C10.1458 4.97917 10.2917 4.91667 10.4583 4.91667C10.625 4.91667 10.7639 4.97223 10.875 5.08334L13.4792 7.6875C13.5486 7.75695 13.6008 7.83667 13.6358 7.92667C13.6703 8.01723 13.6875 8.11112 13.6875 8.20834C13.6875 8.30556 13.6703 8.39917 13.6358 8.48917C13.6008 8.57973 13.5486 8.65973 13.4792 8.72917L10.875 11.3333C10.75 11.4722 10.6078 11.5347 10.4483 11.5208C10.2883 11.5069 10.1458 11.4375 10.0208 11.3125ZM1.5 15.5C1.08333 15.5 0.729167 15.3542 0.4375 15.0625C0.145833 14.7708 0 14.4167 0 14V2.41667C0 2.00001 0.145833 1.64584 0.4375 1.35417C0.729167 1.06251 1.08333 0.916672 1.5 0.916672H6.47917C6.64583 0.916672 6.79167 0.975561 6.91667 1.09334C7.04167 1.21167 7.10417 1.36112 7.10417 1.54167C7.10417 1.72223 7.04167 1.87139 6.91667 1.98917C6.79167 2.10751 6.64583 2.16667 6.47917 2.16667H1.5C1.44444 2.16667 1.38889 2.19445 1.33333 2.25C1.27778 2.30556 1.25 2.36112 1.25 2.41667V14C1.25 14.0556 1.27778 14.1111 1.33333 14.1667C1.38889 14.2222 1.44444 14.25 1.5 14.25H6.47917C6.64583 14.25 6.79167 14.3089 6.91667 14.4267C7.04167 14.545 7.10417 14.6944 7.10417 14.875C7.10417 15.0556 7.04167 15.205 6.91667 15.3233C6.79167 15.4411 6.64583 15.5 6.47917 15.5H1.5Z" fill="#FF0000"/>
</svg>
