<svg width="20" height="24" viewBox="0 0 20 24" fill="none" xmlns="http://www.w3.org/2000/svg">
<path d="M1.83337 20.0208C1.5806 20.0208 1.37176 19.9333 1.20687 19.7583C1.04121 19.5833 0.958374 19.3792 0.958374 19.1458C0.958374 18.8931 1.04121 18.6838 1.20687 18.5182C1.37176 18.3533 1.5806 18.2708 1.83337 18.2708H3.29171V9.81251C3.29171 8.25695 3.77782 6.86162 4.75004 5.62651C5.72226 4.39217 6.98615 3.60001 8.54171 3.25001V2.43334C8.54171 2.02501 8.68287 1.67967 8.96521 1.39734C9.24676 1.11578 9.59171 0.975006 10 0.975006C10.4084 0.975006 10.7533 1.11578 11.0349 1.39734C11.3172 1.67967 11.4584 2.02501 11.4584 2.43334V3.25001C13.0139 3.60001 14.2778 4.39217 15.25 5.62651C16.2223 6.86162 16.7084 8.25695 16.7084 9.81251V18.2708H18.1667C18.4195 18.2708 18.6287 18.3533 18.7944 18.5182C18.9593 18.6838 19.0417 18.8931 19.0417 19.1458C19.0417 19.3792 18.9593 19.5833 18.7944 19.7583C18.6287 19.9333 18.4195 20.0208 18.1667 20.0208H1.83337ZM10 23.4333C9.41671 23.4333 8.92088 23.2292 8.51254 22.8208C8.10421 22.4125 7.90004 21.9167 7.90004 21.3333H12.1C12.1 21.9167 11.8959 22.4125 11.4875 22.8208C11.0792 23.2292 10.5834 23.4333 10 23.4333ZM5.04171 18.2708H14.9584V9.81251C14.9584 8.43195 14.4723 7.26023 13.5 6.29734C12.5278 5.33523 11.3612 4.85417 10 4.85417C8.63893 4.85417 7.47226 5.33523 6.50004 6.29734C5.52782 7.26023 5.04171 8.43195 5.04171 9.81251V18.2708Z" fill="#031F00"/>
</svg>
