<svg width="31" height="23" viewBox="0 0 31 23" fill="none" xmlns="http://www.w3.org/2000/svg">
<path d="M18.125 13.05C17.075 13.05 16.1875 12.6875 15.4625 11.9625C14.7375 11.2375 14.375 10.35 14.375 9.3C14.375 8.275 14.7375 7.394 15.4625 6.657C16.1875 5.919 17.075 5.55 18.125 5.55C19.175 5.55 20.0625 5.919 20.7875 6.657C21.5125 7.394 21.875 8.275 21.875 9.3C21.875 10.35 21.5125 11.2375 20.7875 11.9625C20.0625 12.6875 19.175 13.05 18.125 13.05ZM8.22502 17.7C7.47502 17.7 6.83752 17.4375 6.31252 16.9125C5.78752 16.3875 5.52502 15.75 5.52502 15V3.6375C5.52502 2.8875 5.78752 2.25 6.31252 1.725C6.83752 1.2 7.47502 0.9375 8.22502 0.9375H28.025C28.775 0.9375 29.4125 1.2 29.9375 1.725C30.4625 2.25 30.725 2.8875 30.725 3.6375V15C30.725 15.75 30.4625 16.3875 29.9375 16.9125C29.4125 17.4375 28.775 17.7 28.025 17.7H8.22502ZM10.475 15.45H25.775C25.775 14.7 26.0375 14.0625 26.5625 13.5375C27.0875 13.0125 27.725 12.75 28.475 12.75V5.8875C27.725 5.8875 27.0875 5.6185 26.5625 5.0805C26.0375 4.5435 25.775 3.9125 25.775 3.1875H10.475C10.475 3.9375 10.2125 4.575 9.68752 5.1C9.16252 5.625 8.52502 5.8875 7.77502 5.8875V12.75C8.52502 12.75 9.16252 13.0125 9.68752 13.5375C10.2125 14.0625 10.475 14.7 10.475 15.45ZM2.97502 22.95C2.22502 22.95 1.58752 22.6875 1.06252 22.1625C0.537524 21.6375 0.275024 21 0.275024 20.25V6.525C0.275024 6.2 0.381024 5.931 0.593024 5.718C0.806024 5.506 1.07502 5.4 1.40002 5.4C1.72502 5.4 1.99402 5.506 2.20702 5.718C2.41902 5.931 2.52502 6.2 2.52502 6.525V20.25C2.52502 20.375 2.57502 20.481 2.67502 20.568C2.77502 20.656 2.87502 20.7 2.97502 20.7H25.1375C25.4625 20.7 25.731 20.8125 25.943 21.0375C26.156 21.2625 26.2625 21.525 26.2625 21.825C26.2625 22.15 26.156 22.4185 25.943 22.6305C25.731 22.8435 25.4625 22.95 25.1375 22.95H2.97502ZM8.22502 15.45H7.77502V3.1875H8.22502C8.10002 3.1875 7.99402 3.2315 7.90702 3.3195C7.81902 3.4065 7.77502 3.5125 7.77502 3.6375V15C7.77502 15.125 7.81902 15.231 7.90702 15.318C7.99402 15.406 8.10002 15.45 8.22502 15.45Z" fill="#1C1B1F"/>
</svg>
