<svg width="20" height="20" viewBox="0 0 20 20" fill="none" xmlns="http://www.w3.org/2000/svg">
<path d="M10 9.99999C8.71666 9.99999 7.61805 9.54305 6.70416 8.62916C5.79028 7.71527 5.33333 6.61666 5.33333 5.33332C5.33333 4.04999 5.79028 2.95138 6.70416 2.03749C7.61805 1.1236 8.71666 0.666656 10 0.666656C11.2833 0.666656 12.3819 1.1236 13.2958 2.03749C14.2097 2.95138 14.6667 4.04999 14.6667 5.33332C14.6667 6.61666 14.2097 7.71527 13.2958 8.62916C12.3819 9.54305 11.2833 9.99999 10 9.99999ZM17 19.3333H3C2.35833 19.3333 1.80922 19.105 1.35266 18.6485C0.895331 18.1912 0.666664 17.6417 0.666664 17V16.0667C0.666664 15.4055 0.836998 14.7977 1.17766 14.2432C1.51755 13.6894 1.96944 13.2667 2.53333 12.975C3.73889 12.3722 4.96389 11.9199 6.20833 11.6182C7.45278 11.3172 8.71666 11.1667 10 11.1667C11.2833 11.1667 12.5472 11.3172 13.7917 11.6182C15.0361 11.9199 16.2611 12.3722 17.4667 12.975C18.0306 13.2667 18.4824 13.6894 18.8223 14.2432C19.163 14.7977 19.3333 15.4055 19.3333 16.0667V17C19.3333 17.6417 19.1051 18.1912 18.6485 18.6485C18.1912 19.105 17.6417 19.3333 17 19.3333ZM3 17H17V16.0667C17 15.8528 16.9467 15.6583 16.8402 15.4833C16.7328 15.3083 16.5917 15.1722 16.4167 15.075C15.3667 14.55 14.3069 14.156 13.2375 13.8932C12.1681 13.631 11.0889 13.5 10 13.5C8.91111 13.5 7.83194 13.631 6.7625 13.8932C5.69305 14.156 4.63333 14.55 3.58333 15.075C3.40833 15.1722 3.26755 15.3083 3.161 15.4833C3.05366 15.6583 3 15.8528 3 16.0667V17ZM10 7.66666C10.6417 7.66666 11.1912 7.43799 11.6485 6.98066C12.1051 6.5241 12.3333 5.97499 12.3333 5.33332C12.3333 4.69166 12.1051 4.14254 11.6485 3.68599C11.1912 3.22866 10.6417 2.99999 10 2.99999C9.35833 2.99999 8.80922 3.22866 8.35266 3.68599C7.89533 4.14254 7.66666 4.69166 7.66666 5.33332C7.66666 5.97499 7.89533 6.5241 8.35266 6.98066C8.80922 7.43799 9.35833 7.66666 10 7.66666Z" fill="#031F00"/>
</svg>
