<svg width="20" height="20" viewBox="0 0 20 20" fill="none" xmlns="http://www.w3.org/2000/svg">
<path d="M9.99996 9.99999C8.71663 9.99999 7.61801 9.54305 6.70413 8.62916C5.79024 7.71527 5.33329 6.61666 5.33329 5.33332C5.33329 4.04999 5.79024 2.95138 6.70413 2.03749C7.61801 1.1236 8.71663 0.666656 9.99996 0.666656C11.2833 0.666656 12.3819 1.1236 13.2958 2.03749C14.2097 2.95138 14.6666 4.04999 14.6666 5.33332C14.6666 6.61666 14.2097 7.71527 13.2958 8.62916C12.3819 9.54305 11.2833 9.99999 9.99996 9.99999ZM2.99996 19.3333C2.35829 19.3333 1.80918 19.105 1.35263 18.6485C0.895292 18.1912 0.666626 17.6417 0.666626 17V16.0667C0.666626 15.4055 0.83696 14.7977 1.17763 14.2432C1.51752 13.6894 1.9694 13.2667 2.53329 12.975C3.73885 12.3722 4.96385 11.9199 6.20829 11.6182C7.45274 11.3172 8.71663 11.1667 9.99996 11.1667C11.2833 11.1667 12.5472 11.3172 13.7916 11.6182C15.0361 11.9199 16.2611 12.3722 17.4666 12.975C18.0305 13.2667 18.4824 13.6894 18.8223 14.2432C19.163 14.7977 19.3333 15.4055 19.3333 16.0667V17C19.3333 17.6417 19.105 18.1912 18.6485 18.6485C18.1911 19.105 17.6416 19.3333 17 19.3333H2.99996Z" fill="#031F00"/>
</svg>
