<svg width="30" height="27" viewBox="0 0 30 27" fill="none" xmlns="http://www.w3.org/2000/svg">
<path d="M13.35 17.625H22.5C22.825 17.625 23.094 17.5185 23.307 17.3055C23.519 17.0935 23.625 16.825 23.625 16.5C23.625 16.175 23.519 15.906 23.307 15.693C23.094 15.481 22.825 15.375 22.5 15.375H15.6L13.35 17.625ZM7.35 17.625H9C9.175 17.625 9.3375 17.5875 9.4875 17.5125C9.6375 17.4375 9.7875 17.3375 9.9375 17.2125L18.225 9.0375C18.35 8.8875 18.4125 8.719 18.4125 8.532C18.4125 8.344 18.35 8.175 18.225 8.025L16.2375 6.075C16.1125 5.95 15.9565 5.8875 15.7695 5.8875C15.5815 5.8875 15.4125 5.95 15.2625 6.075L7.0875 14.3625C6.9625 14.4875 6.8625 14.631 6.7875 14.793C6.7125 14.956 6.675 15.125 6.675 15.3V16.95C6.675 17.125 6.744 17.2815 6.882 17.4195C7.019 17.5565 7.175 17.625 7.35 17.625ZM0.75 25.275V3.45C0.75 2.7 1.0125 2.0625 1.5375 1.5375C2.0625 1.0125 2.7 0.75 3.45 0.75H26.55C27.3 0.75 27.9375 1.0125 28.4625 1.5375C28.9875 2.0625 29.25 2.7 29.25 3.45V20.55C29.25 21.3 28.9875 21.9375 28.4625 22.4625C27.9375 22.9875 27.3 23.25 26.55 23.25H6.075L3.0375 26.25C2.6125 26.675 2.125 26.769 1.575 26.532C1.025 26.294 0.75 25.875 0.75 25.275ZM3 23.1375L5.1375 21H26.55C26.675 21 26.7815 20.956 26.8695 20.868C26.9565 20.781 27 20.675 27 20.55V3.45C27 3.325 26.9565 3.2185 26.8695 3.1305C26.7815 3.0435 26.675 3 26.55 3H3.45C3.325 3 3.219 3.0435 3.132 3.1305C3.044 3.2185 3 3.325 3 3.45V23.1375ZM3 3.45V3V23.1375V3.45Z" fill="#1C1B1F"/>
</svg>
