<svg width="21" height="22" viewBox="0 0 21 22" fill="none" xmlns="http://www.w3.org/2000/svg">
<path d="M18.7166 20.6833L12.1833 14.15C11.6 14.6167 10.9291 14.9861 10.1708 15.2583C9.41246 15.5306 8.60551 15.6667 7.74996 15.6667C5.63051 15.6667 3.83696 14.9328 2.36929 13.4652C0.900848 11.9967 0.166626 10.2028 0.166626 8.08333C0.166626 5.96389 0.900848 4.16994 2.36929 2.7015C3.83696 1.23383 5.63051 0.5 7.74996 0.5C9.8694 0.5 11.6633 1.23383 13.1318 2.7015C14.5995 4.16994 15.3333 5.96389 15.3333 8.08333C15.3333 8.93889 15.1972 9.74583 14.925 10.5042C14.6527 11.2625 14.2833 11.9333 13.8166 12.5167L20.3791 19.0792C20.593 19.2931 20.7 19.5556 20.7 19.8667C20.7 20.1778 20.5833 20.45 20.35 20.6833C20.1361 20.8972 19.8638 21.0042 19.5333 21.0042C19.2027 21.0042 18.9305 20.8972 18.7166 20.6833ZM7.74996 13.3333C9.20829 13.3333 10.4481 12.8231 11.4693 11.8027C12.4897 10.7814 13 9.54167 13 8.08333C13 6.625 12.4897 5.38522 11.4693 4.364C10.4481 3.34356 9.20829 2.83333 7.74996 2.83333C6.29163 2.83333 5.05185 3.34356 4.03063 4.364C3.01018 5.38522 2.49996 6.625 2.49996 8.08333C2.49996 9.54167 3.01018 10.7814 4.03063 11.8027C5.05185 12.8231 6.29163 13.3333 7.74996 13.3333Z" fill="#031F00"/>
</svg>
