<svg width="21" height="22" viewBox="0 0 21 22" fill="none" xmlns="http://www.w3.org/2000/svg">
<path d="M18.7167 20.6833L12.1833 14.15C11.6 14.6167 10.9292 14.9861 10.1708 15.2583C9.41249 15.5306 8.60555 15.6667 7.74999 15.6667C5.63055 15.6667 3.83699 14.9328 2.36932 13.4652C0.900879 11.9967 0.166656 10.2028 0.166656 8.08333C0.166656 5.96389 0.900879 4.16994 2.36932 2.7015C3.83699 1.23383 5.63055 0.5 7.74999 0.5C9.86943 0.5 11.6634 1.23383 13.1318 2.7015C14.5995 4.16994 15.3333 5.96389 15.3333 8.08333C15.3333 8.93889 15.1972 9.74583 14.925 10.5042C14.6528 11.2625 14.2833 11.9333 13.8167 12.5167L20.3792 19.0792C20.593 19.2931 20.7 19.5556 20.7 19.8667C20.7 20.1778 20.5833 20.45 20.35 20.6833C20.1361 20.8972 19.8639 21.0042 19.5333 21.0042C19.2028 21.0042 18.9305 20.8972 18.7167 20.6833ZM7.74999 13.3333C9.20832 13.3333 10.4481 12.8231 11.4693 11.8027C12.4898 10.7814 13 9.54167 13 8.08333C13 6.625 12.4898 5.38522 11.4693 4.364C10.4481 3.34356 9.20832 2.83333 7.74999 2.83333C6.29166 2.83333 5.05188 3.34356 4.03066 4.364C3.01021 5.38522 2.49999 6.625 2.49999 8.08333C2.49999 9.54167 3.01021 10.7814 4.03066 11.8027C5.05188 12.8231 6.29166 13.3333 7.74999 13.3333Z" fill="#031F00"/>
</svg>
