<svg width="14" height="13" viewBox="0 0 14 13" fill="none" xmlns="http://www.w3.org/2000/svg">
<path d="M5.36665 8.55L1.69999 12.2C1.59999 12.3111 1.48065 12.3667 1.34199 12.3667C1.20288 12.3667 1.07777 12.3111 0.966654 12.2C0.855543 12.0889 0.799988 11.9667 0.799988 11.8333C0.799988 11.7 0.855543 11.5778 0.966654 11.4667L4.93332 7.48334C5.05554 7.36111 5.19732 7.3 5.35865 7.3C5.51954 7.3 5.6611 7.36111 5.78332 7.48334L8.03332 9.73334L12.3833 4.78334C12.4722 4.67222 12.5862 4.61667 12.7253 4.61667C12.864 4.61667 12.9889 4.66667 13.1 4.76667C13.1889 4.85556 13.2362 4.96378 13.242 5.09134C13.2473 5.21934 13.2055 5.33334 13.1167 5.43334L8.46665 10.75C8.35554 10.8722 8.2111 10.9362 8.03332 10.942C7.85554 10.9473 7.70554 10.8944 7.58332 10.7833L5.36665 8.55ZM5.36665 4.55L1.69999 8.2C1.59999 8.31111 1.48065 8.36667 1.34199 8.36667C1.20288 8.36667 1.07777 8.31111 0.966654 8.2C0.855543 8.08889 0.799988 7.96667 0.799988 7.83334C0.799988 7.7 0.855543 7.57778 0.966654 7.46667L4.93332 3.48334C5.05554 3.36111 5.19732 3.3 5.35865 3.3C5.51954 3.3 5.6611 3.36111 5.78332 3.48334L8.03332 5.73334L12.3833 0.783335C12.4722 0.672224 12.5862 0.616669 12.7253 0.616669C12.864 0.616669 12.9889 0.666669 13.1 0.766669C13.1889 0.855558 13.2362 0.96378 13.242 1.09134C13.2473 1.21934 13.2055 1.33334 13.1167 1.43334L8.46665 6.75C8.35554 6.87222 8.2111 6.936 8.03332 6.94134C7.85554 6.94711 7.70554 6.89445 7.58332 6.78334L5.36665 4.55Z" fill="#FDFFFE"/>
</svg>
