<svg width="14" height="13" viewBox="0 0 14 13" fill="none" xmlns="http://www.w3.org/2000/svg">
<path d="M6.74583 2.87501V9.37501L9.37083 10.9792L8.68333 7.97917L10.9958 5.97917L7.95416 5.70834L6.74583 2.87501ZM6.74583 10.8542L3.49583 12.7917C3.38472 12.8611 3.26666 12.8922 3.14166 12.885C3.01666 12.8783 2.90555 12.8403 2.80833 12.7708C2.71111 12.7014 2.63472 12.6078 2.57916 12.49C2.52361 12.3717 2.51666 12.2431 2.55833 12.1042L3.4125 8.43751L0.558328 5.95834C0.447217 5.86112 0.377773 5.75001 0.349995 5.62501C0.322217 5.50001 0.329162 5.38195 0.370828 5.27084C0.412495 5.15973 0.478606 5.06584 0.569162 4.98917C0.659162 4.91306 0.773606 4.86806 0.912495 4.85417L4.68333 4.52084L6.1625 1.04167C6.21805 0.916672 6.29805 0.822783 6.4025 0.760005C6.50638 0.697783 6.62083 0.666672 6.74583 0.666672C6.87083 0.666672 6.98555 0.697783 7.09 0.760005C7.19388 0.822783 7.27361 0.916672 7.32916 1.04167L8.80833 4.52084L12.5792 4.85417C12.7181 4.86806 12.8328 4.91306 12.9233 4.98917C13.0133 5.06584 13.0792 5.15973 13.1208 5.27084C13.1625 5.38195 13.1694 5.50001 13.1417 5.62501C13.1139 5.75001 13.0444 5.86112 12.9333 5.95834L10.0792 8.43751L10.9333 12.1042C10.975 12.2431 10.9681 12.3717 10.9125 12.49C10.8569 12.6078 10.7806 12.7014 10.6833 12.7708C10.5861 12.8403 10.475 12.8783 10.35 12.885C10.225 12.8922 10.1069 12.8611 9.99583 12.7917L6.74583 10.8542Z" fill="#031F00"/>
</svg>
