<svg width="24" height="20" viewBox="0 0 24 20" fill="none" xmlns="http://www.w3.org/2000/svg">
<g filter="url(#filter0_d_64_451)">
<path d="M16.95 10.3C16.3167 10.3 15.7834 10.0833 15.35 9.65001C14.9167 9.21668 14.7 8.68335 14.7 8.05001C14.7 7.43335 14.9167 6.90401 15.35 6.46201C15.7834 6.02068 16.3167 5.80001 16.95 5.80001C17.5667 5.80001 18.096 6.02068 18.538 6.46201C18.9794 6.90401 19.2001 7.43335 19.2001 8.05001C19.2001 8.68335 18.9794 9.21668 18.538 9.65001C18.096 10.0833 17.5667 10.3 16.95 10.3ZM13.1 15.3C12.85 15.3 12.6377 15.2127 12.463 15.038C12.2877 14.8627 12.2 14.65 12.2 14.4V14.15C12.2 13.8 12.2917 13.475 12.475 13.175C12.6584 12.875 12.9167 12.6667 13.25 12.55C13.8167 12.3 14.4127 12.1127 15.038 11.988C15.6627 11.8627 16.3 11.8 16.95 11.8C17.5834 11.8 18.2084 11.8627 18.8251 11.988C19.4417 12.1127 20.05 12.3 20.65 12.55C20.9834 12.6667 21.2417 12.875 21.425 13.175C21.6084 13.475 21.7001 13.8 21.7001 14.15V14.4C21.7001 14.65 21.6127 14.8627 21.438 15.038C21.2627 15.2127 21.05 15.3 20.8 15.3H13.1ZM9.80005 7.70001C8.83338 7.70001 8.00838 7.35835 7.32505 6.67501C6.64172 5.99168 6.30005 5.16668 6.30005 4.20001C6.30005 3.23335 6.64172 2.40835 7.32505 1.72501C8.00838 1.04168 8.83338 0.700012 9.80005 0.700012C10.7667 0.700012 11.5917 1.04168 12.275 1.72501C12.9584 2.40835 13.3 3.23335 13.3 4.20001C13.3 5.16668 12.9584 5.99168 12.275 6.67501C11.5917 7.35835 10.7667 7.70001 9.80005 7.70001ZM3.20005 15.3C2.95005 15.3 2.73738 15.2167 2.56205 15.05C2.38738 14.8833 2.30005 14.6667 2.30005 14.4V12.95C2.30005 12.5333 2.43772 12.1333 2.71305 11.75C2.98772 11.3667 3.37505 11.05 3.87505 10.8C4.75838 10.3333 5.70438 9.96668 6.71305 9.70001C7.72105 9.43335 8.75005 9.30001 9.80005 9.30001C10.1834 9.30001 10.575 9.32501 10.975 9.37501C11.375 9.42501 11.7834 9.49168 12.2 9.57501V10.55C12.0334 10.6167 11.8877 10.6833 11.763 10.75C11.6377 10.8167 11.5167 10.8917 11.4 10.975C10.85 11.375 10.446 11.8543 10.188 12.413C9.92938 12.971 9.80005 13.4333 9.80005 13.8V15.3H3.20005Z" fill="#FDFFFE"/>
</g>
</svg>
