<svg width="12" height="14" viewBox="0 0 12 14" fill="none" xmlns="http://www.w3.org/2000/svg">
<path d="M4.63331 1.33334C4.48887 1.33334 4.36953 1.286 4.27531 1.19134C4.18065 1.09711 4.13331 0.97778 4.13331 0.833336C4.13331 0.688891 4.18065 0.569336 4.27531 0.474669C4.36953 0.380447 4.48887 0.333336 4.63331 0.333336H7.36665C7.51109 0.333336 7.63065 0.380447 7.72531 0.474669C7.81953 0.569336 7.86665 0.688891 7.86665 0.833336C7.86665 0.97778 7.81953 1.09711 7.72531 1.19134C7.63065 1.286 7.51109 1.33334 7.36665 1.33334H4.63331ZM5.99998 8.7C6.14442 8.7 6.26398 8.65267 6.35865 8.558C6.45287 8.46378 6.49998 8.34445 6.49998 8.2V5.46667C6.49998 5.32222 6.45287 5.20267 6.35865 5.108C6.26398 5.01378 6.14442 4.96667 5.99998 4.96667C5.85554 4.96667 5.7362 5.01378 5.64198 5.108C5.54731 5.20267 5.49998 5.32222 5.49998 5.46667V8.2C5.49998 8.34445 5.54731 8.46378 5.64198 8.558C5.7362 8.65267 5.85554 8.7 5.99998 8.7ZM5.99998 13.8333C5.2222 13.8333 4.48887 13.6833 3.79998 13.3833C3.11109 13.0833 2.51109 12.6778 1.99998 12.1667C1.48887 11.6556 1.08331 11.0556 0.783313 10.3667C0.483313 9.67778 0.333313 8.94445 0.333313 8.16667C0.333313 7.38889 0.483313 6.65556 0.783313 5.96667C1.08331 5.27778 1.48887 4.67778 1.99998 4.16667C2.51109 3.65556 3.11109 3.25 3.79998 2.95C4.48887 2.65 5.2222 2.5 5.99998 2.5C6.66665 2.5 7.30842 2.61378 7.92531 2.84134C8.54176 3.06934 9.11665 3.39445 9.64998 3.81667L10.15 3.31667C10.2389 3.22778 10.35 3.18334 10.4833 3.18334C10.6166 3.18334 10.7333 3.23334 10.8333 3.33334C10.9333 3.43334 10.9833 3.55 10.9833 3.68334C10.9833 3.81667 10.9333 3.93334 10.8333 4.03334L10.35 4.51667C10.7722 5.05 11.0973 5.62511 11.3253 6.242C11.5529 6.85845 11.6666 7.5 11.6666 8.16667C11.6666 8.94445 11.5166 9.67778 11.2166 10.3667C10.9166 11.0556 10.5111 11.6556 9.99998 12.1667C9.48887 12.6778 8.88887 13.0833 8.19998 13.3833C7.51109 13.6833 6.77776 13.8333 5.99998 13.8333ZM5.99998 12.8333C7.28887 12.8333 8.38887 12.3778 9.29998 11.4667C10.2111 10.5556 10.6666 9.45556 10.6666 8.16667C10.6666 6.87778 10.2111 5.77778 9.29998 4.86667C8.38887 3.95556 7.28887 3.5 5.99998 3.5C4.71109 3.5 3.61109 3.95556 2.69998 4.86667C1.78887 5.77778 1.33331 6.87778 1.33331 8.16667C1.33331 9.45556 1.78887 10.5556 2.69998 11.4667C3.61109 12.3778 4.71109 12.8333 5.99998 12.8333Z" fill="#031F00"/>
</svg>
